<?xml version="1.0" encoding="utf-8"?>
<!-- Generator: Adobe Illustrator 24.3.0, SVG Export Plug-In . SVG Version: 6.00 Build 0)  -->
<svg version="1.1" id="Layer_1" xmlns="http://www.w3.org/2000/svg" xmlns:xlink="http://www.w3.org/1999/xlink" x="0px" y="0px"
	 viewBox="0 0 300 300" enable-background="new 0 0 300 300" xml:space="preserve">
<g>
	<g>
		<path d="M225.038,243.848H57.692c-2.86,0-5.178-2.318-5.178-5.177v-18.751c0-1.372,0.546-2.689,1.516-3.661
			c13.307-13.306,30.999-20.634,49.815-20.634c14.905,0,29.104,4.596,40.977,13.122v-99.357c0-2.86,2.318-5.178,5.178-5.178
			c2.859,0,5.177,2.318,5.177,5.178v110.53c0,2.094-1.262,3.982-3.195,4.783c-1.935,0.803-4.162,0.359-5.643-1.121
			c-22.932-22.932-59.939-23.42-83.47-1.466v11.377h162.169c2.86,0,5.178,2.318,5.178,5.178
			C230.216,241.53,227.898,243.848,225.038,243.848z"/>
	</g>
	<g>
		<path d="M242.308,243.848h-1.523c-2.859,0-5.178-2.318-5.178-5.177c0-2.86,2.318-5.178,5.178-5.178h1.523
			c2.859,0,5.178,2.318,5.178,5.178C247.486,241.53,245.168,243.848,242.308,243.848z"/>
	</g>
	<g>
		<path d="M242.309,225.098c-1.348,0-2.672-0.526-3.662-1.516c-17.465-17.464-44.358-22.461-66.921-12.433
			c-2.612,1.162-5.673-0.016-6.834-2.628c-1.161-2.612,0.016-5.673,2.628-6.834c12.873-5.722,27.038-7.444,40.965-4.98
			c10.422,1.843,20.151,5.954,28.645,12.045V82.644c-23.53-21.954-60.537-21.467-83.471,1.464c-2.02,2.022-5.299,2.022-7.321,0
			C123.407,61.177,86.4,60.69,62.869,82.644v109.562c0,2.859-2.318,5.177-5.177,5.177c-2.86,0-5.178-2.318-5.178-5.177V80.448
			c0-1.373,0.546-2.69,1.516-3.661c13.307-13.307,30.998-20.634,49.815-20.634c17.14,0,33.347,6.081,46.155,17.219
			c12.807-11.138,29.015-17.219,46.153-17.219c0.002,0,0,0,0.002,0c18.816,0,36.508,7.328,49.814,20.634
			c0.971,0.971,1.517,2.288,1.517,3.661v139.472c0,2.094-1.262,3.982-3.197,4.783C243.648,224.968,242.975,225.098,242.309,225.098z
			"/>
	</g>
	<g>
		<g>
			<path d="M130.582,108.418c-0.709,0-1.428-0.146-2.116-0.455c-0.475-0.213-0.957-0.423-1.438-0.623
				c-2.638-1.102-3.886-4.133-2.783-6.772c1.1-2.639,4.133-3.885,6.772-2.784c0.562,0.234,1.131,0.481,1.687,0.73
				c2.61,1.17,3.775,4.233,2.606,6.842C134.447,107.279,132.559,108.418,130.582,108.418z"/>
		</g>
		<g>
			<path d="M77.107,108.419c-1.978,0-3.865-1.139-4.726-3.059c-1.171-2.609-0.005-5.673,2.604-6.844
				c12.425-5.575,26.136-7.421,39.65-5.337c2.826,0.436,4.764,3.08,4.328,5.906c-0.435,2.827-3.081,4.765-5.906,4.329
				c-11.536-1.779-23.234-0.205-33.833,4.551C78.536,108.272,77.816,108.419,77.107,108.419z"/>
		</g>
		<g>
			<path d="M130.582,144.618c-0.709,0-1.428-0.146-2.116-0.456c-10.6-4.756-22.301-6.33-33.838-4.549
				c-2.826,0.437-5.47-1.501-5.906-4.328c-0.437-2.826,1.502-5.47,4.327-5.906c13.516-2.086,27.229-0.241,39.656,5.335
				c2.608,1.171,3.775,4.235,2.605,6.843C134.447,143.48,132.559,144.618,130.582,144.618z"/>
		</g>
		<g>
			<path d="M77.107,144.618c-1.978,0-3.865-1.138-4.726-3.059c-1.171-2.609-0.005-5.673,2.604-6.843
				c0.562-0.252,1.132-0.499,1.694-0.734c2.64-1.101,5.671,0.145,6.773,2.785c1.1,2.639-0.146,5.671-2.785,6.772
				c-0.479,0.199-0.963,0.41-1.443,0.624C78.536,144.473,77.816,144.618,77.107,144.618z"/>
		</g>
		<g>
			<path d="M130.582,180.817c-0.709,0-1.43-0.145-2.118-0.455c-0.474-0.213-0.956-0.422-1.433-0.62
				c-2.639-1.102-3.885-4.134-2.784-6.773c1.101-2.639,4.133-3.885,6.773-2.784c0.559,0.234,1.128,0.479,1.685,0.73
				c2.608,1.171,3.774,4.236,2.603,6.844C134.447,179.679,132.559,180.817,130.582,180.817z"/>
		</g>
		<g>
			<path d="M77.107,180.818c-1.976,0-3.865-1.138-4.726-3.058c-1.17-2.609-0.004-5.673,2.604-6.844
				c12.428-5.577,26.143-7.422,39.662-5.335c2.827,0.436,4.763,3.08,4.327,5.906c-0.436,2.826-3.079,4.763-5.907,4.327
				c-11.539-1.782-23.242-0.208-33.842,4.549C78.537,180.672,77.816,180.818,77.107,180.818z"/>
		</g>
	</g>
	<g>
		<g>
			<path d="M169.418,108.418c-1.978,0-3.866-1.139-4.727-3.061c-1.17-2.609-0.005-5.673,2.605-6.842
				c0.559-0.249,1.126-0.496,1.688-0.73c2.639-1.102,5.673,0.145,6.772,2.784c1.102,2.639-0.144,5.67-2.784,6.772
				c-0.48,0.2-0.964,0.41-1.439,0.623C170.845,108.271,170.126,108.418,169.418,108.418z"/>
		</g>
		<g>
			<path d="M222.892,108.419c-0.708,0-1.429-0.147-2.116-0.455c-10.599-4.755-22.298-6.33-33.833-4.551
				c-2.825,0.436-5.472-1.502-5.907-4.329c-0.434-2.826,1.503-5.47,4.328-5.906c13.514-2.084,27.227-0.238,39.651,5.337
				c2.608,1.171,3.775,4.234,2.603,6.844C226.758,107.28,224.87,108.419,222.892,108.419z"/>
		</g>
		<g>
			<path d="M169.417,144.618c-1.977,0-3.865-1.139-4.726-3.06c-1.171-2.608-0.006-5.672,2.603-6.843
				c12.428-5.576,26.14-7.421,39.656-5.335c2.827,0.436,4.765,3.08,4.329,5.906c-0.438,2.826-3.08,4.764-5.908,4.328
				c-11.535-1.779-23.237-0.207-33.838,4.549C170.845,144.472,170.126,144.618,169.417,144.618z"/>
		</g>
		<g>
			<path d="M222.892,144.618c-0.708,0-1.428-0.146-2.116-0.455c-0.48-0.214-0.965-0.425-1.443-0.624
				c-2.64-1.101-3.886-4.134-2.785-6.772c1.1-2.64,4.133-3.886,6.773-2.785c0.562,0.235,1.132,0.482,1.693,0.734
				c2.609,1.17,3.775,4.234,2.604,6.843C226.758,143.481,224.87,144.618,222.892,144.618z"/>
		</g>
		<g>
			<path d="M169.418,180.817c-1.978,0-3.865-1.138-4.727-3.058c-1.171-2.608-0.006-5.673,2.602-6.844
				c0.561-0.251,1.128-0.496,1.688-0.73c2.637-1.101,5.67,0.145,6.77,2.784c1.104,2.639-0.145,5.671-2.783,6.773
				c-0.476,0.198-0.958,0.407-1.434,0.62C170.845,180.672,170.126,180.817,169.418,180.817z"/>
		</g>
		<g>
			<path d="M222.892,180.818c-0.709,0-1.429-0.146-2.118-0.455c-10.601-4.757-22.304-6.331-33.842-4.549
				c-2.826,0.436-5.471-1.501-5.906-4.327c-0.437-2.826,1.5-5.47,4.326-5.906c13.52-2.087,27.234-0.242,39.662,5.335
				c2.607,1.171,3.775,4.235,2.604,6.844C226.756,179.68,224.868,180.818,222.892,180.818z"/>
		</g>
	</g>
</g>
</svg>
